<?xml version="1.0" standalone="no"?>
<!DOCTYPE svg PUBLIC "-//W3C//DTD SVG 20010904//EN"
 "http://www.w3.org/TR/2001/REC-SVG-20010904/DTD/svg10.dtd">
<svg version="1.0" xmlns="http://www.w3.org/2000/svg"
 width="1080.000000pt" height="1080.000000pt" viewBox="0 0 1080.000000 1080.000000"
 preserveAspectRatio="xMidYMid meet">
<metadata>
Created by potrace 1.14, written by Peter Selinger 2001-2017
</metadata>
<g transform="translate(0.000000,1080.000000) scale(0.100000,-0.100000)"
fill="#000000" stroke="none">
<path d="M3310 10001 c0 -5 -8 -10 -17 -10 -56 0 -120 -7 -130 -14 -8 -5 -13
-3 -13 5 0 8 -5 6 -11 -5 -7 -13 -14 -15 -23 -8 -7 6 -18 6 -25 1 -8 -4 -21
-6 -29 -2 -10 3 -13 1 -8 -7 9 -14 -16 -11 -26 4 -5 6 -8 3 -8 -7 0 -10 -7
-15 -17 -13 -10 1 -24 -3 -32 -9 -11 -8 -13 -8 -7 1 5 9 2 11 -8 7 -9 -3 -16
-10 -16 -14 0 -4 -12 -5 -26 -2 -19 3 -25 1 -20 -6 5 -8 2 -10 -8 -6 -9 3 -16
2 -16 -4 0 -6 -9 -8 -20 -5 -11 3 -20 0 -20 -6 0 -6 -9 -11 -21 -11 -11 0 -17
-4 -14 -10 3 -5 0 -7 -8 -5 -7 3 -29 -1 -49 -9 -19 -8 -39 -12 -43 -8 -3 4 -5
3 -3 -3 1 -5 0 -11 -5 -12 -4 -2 -22 -9 -41 -17 -19 -8 -38 -11 -42 -8 -4 4
-4 1 0 -5 4 -8 1 -13 -8 -13 -9 0 -16 -4 -16 -9 0 -5 -8 -8 -17 -7 -10 0 -17
-4 -16 -11 2 -7 -3 -10 -10 -7 -7 2 -25 -6 -39 -19 -20 -19 -29 -22 -39 -13
-9 8 -10 8 -5 -1 4 -8 1 -13 -7 -13 -8 0 -18 -8 -21 -17 -6 -15 -8 -15 -16 -3
-8 13 -10 12 -10 -3 0 -10 -4 -15 -10 -12 -5 3 -10 -1 -10 -10 0 -9 -4 -14 -9
-11 -5 3 -23 -8 -40 -24 -17 -17 -31 -27 -31 -24 0 4 -9 -5 -21 -20 -11 -14
-24 -24 -28 -22 -4 3 -14 -4 -21 -15 -8 -10 -18 -19 -22 -19 -12 0 -67 -58
-61 -64 4 -3 -4 -6 -17 -6 -13 0 -21 -3 -18 -6 7 -7 -48 -64 -61 -64 -6 0 -8
-7 -5 -15 6 -14 -6 -20 -29 -16 -4 1 -7 -5 -5 -13 2 -8 -8 -24 -21 -35 -13
-12 -21 -21 -18 -21 4 0 -2 -9 -13 -20 -12 -12 -18 -25 -15 -31 4 -5 3 -8 -2
-7 -4 2 -10 -1 -12 -7 -9 -20 -26 -33 -36 -27 -5 3 -7 2 -3 -3 7 -7 -18 -65
-28 -65 -3 0 -2 5 2 12 4 7 3 8 -5 4 -6 -4 -9 -11 -6 -16 2 -4 -5 -19 -16 -34
-11 -14 -18 -26 -14 -26 3 0 -3 -10 -14 -22 -11 -11 -18 -25 -15 -29 2 -4 -4
-12 -13 -18 -14 -8 -15 -11 -3 -11 12 0 11 -3 -3 -11 -9 -6 -15 -14 -12 -20 4
-5 1 -9 -5 -9 -7 0 -10 -6 -7 -14 3 -8 -1 -17 -9 -20 -9 -3 -12 -10 -9 -16 3
-5 2 -10 -4 -10 -6 0 -8 -6 -5 -13 2 -7 -5 -23 -16 -35 -13 -14 -16 -22 -8
-22 9 0 9 -3 -2 -10 -8 -5 -11 -10 -6 -10 5 0 3 -6 -3 -13 -6 -8 -8 -17 -4
-20 3 -4 1 -7 -5 -7 -7 0 -12 -8 -12 -18 0 -10 -8 -28 -17 -41 -9 -14 -11 -21
-5 -17 7 4 12 2 12 -3 0 -6 -5 -11 -11 -11 -6 0 -9 -7 -6 -15 4 -8 2 -17 -4
-20 -5 -4 -7 -11 -4 -16 4 -5 0 -9 -7 -9 -9 0 -9 -3 2 -10 11 -7 12 -10 2 -10
-8 0 -12 -6 -9 -12 2 -7 -2 -28 -9 -45 -7 -18 -10 -33 -7 -33 3 0 -1 -8 -8
-17 -8 -9 -9 -14 -3 -10 6 3 11 0 11 -8 0 -8 -4 -12 -9 -9 -4 3 -9 -11 -9 -30
-2 -60 -4 -70 -13 -85 -5 -8 -4 -16 5 -22 10 -6 11 -9 2 -9 -7 0 -13 -5 -13
-11 0 -5 6 -7 13 -3 9 6 9 5 0 -8 -7 -8 -10 -18 -6 -21 3 -4 2 -7 -4 -7 -6 0
-9 -12 -7 -27 6 -55 7 -173 1 -179 -3 -3 -2 -18 2 -32 4 -15 6 -39 5 -55 -2
-19 1 -25 9 -20 8 4 8 1 -1 -9 -10 -12 -10 -18 -1 -23 8 -6 7 -10 -2 -16 -12
-8 -12 -10 0 -18 10 -6 11 -13 2 -29 -6 -12 -7 -23 -2 -26 5 -3 9 -21 9 -40 0
-19 3 -39 6 -44 3 -6 0 -13 -6 -15 -7 -3 -8 -6 -2 -6 6 -1 9 -17 8 -36 -2 -26
0 -34 9 -28 7 4 7 0 -2 -10 -11 -14 -11 -17 0 -17 11 0 11 -2 -1 -10 -8 -5
-10 -10 -5 -10 6 0 10 -19 10 -43 0 -23 2 -57 6 -74 4 -21 3 -33 -4 -33 -5 0
-2 -10 9 -22 10 -12 13 -18 6 -14 -10 6 -11 1 -7 -21 4 -15 6 -34 6 -40 -3
-53 4 -163 11 -163 4 0 3 -11 -2 -25 -8 -20 -7 -23 8 -18 14 5 14 3 -3 -17
-11 -13 -15 -20 -8 -17 6 4 14 3 18 -3 3 -5 1 -10 -6 -10 -7 0 -8 -4 -2 -12 5
-7 8 -43 8 -80 0 -36 3 -64 8 -61 4 2 7 -1 7 -6 0 -6 -5 -11 -12 -11 -9 0 -9
-3 0 -12 16 -16 15 -31 0 -22 -10 6 -10 4 0 -7 14 -16 16 -33 2 -24 -6 3 -7
-1 -4 -9 3 -9 9 -14 13 -12 9 6 7 -37 -2 -51 -4 -7 -3 -14 2 -17 11 -7 9 -56
-3 -75 -7 -10 -6 -12 4 -6 10 6 12 4 7 -8 -4 -10 -1 -17 6 -17 8 0 8 -3 -2 -9
-11 -7 -10 -14 5 -37 18 -28 18 -29 0 -14 -18 14 -19 14 -7 -7 6 -13 9 -23 6
-23 -3 0 -2 -8 4 -17 5 -10 5 -26 0 -40 -5 -14 -5 -23 1 -23 5 0 7 -12 4 -26
-3 -17 -1 -23 7 -19 6 4 3 -5 -7 -21 -13 -20 -14 -25 -4 -17 13 10 15 1 15
-68 -1 -43 2 -79 6 -79 9 0 6 -21 -4 -37 -5 -8 -3 -13 4 -13 7 0 9 -3 6 -7 -4
-3 -1 -13 6 -21 8 -10 8 -13 1 -9 -7 4 -15 0 -18 -9 -4 -12 -2 -15 9 -10 13 4
14 2 5 -14 -8 -15 -8 -20 2 -20 9 0 9 -3 -2 -10 -11 -7 -11 -10 -2 -10 9 0 10
-5 2 -19 -7 -15 -6 -23 6 -35 8 -9 12 -16 7 -16 -4 0 -8 -18 -8 -40 0 -22 4
-40 9 -40 6 0 5 -5 -2 -12 -9 -9 -8 -16 6 -32 9 -11 11 -16 5 -12 -13 7 -18
-6 -7 -17 4 -4 8 -45 9 -92 1 -47 5 -88 8 -91 3 -4 2 -16 -4 -27 -6 -10 -7
-17 -2 -14 9 6 13 -28 16 -140 1 -29 6 -53 11 -53 4 0 3 -6 -3 -14 -9 -11 -9
-15 1 -19 10 -4 9 -6 -1 -6 -11 -1 -10 -5 5 -17 10 -8 14 -13 7 -10 -6 4 -14
2 -18 -4 -3 -5 -2 -10 2 -10 5 0 10 -11 11 -26 1 -17 -2 -23 -11 -19 -6 4 -3
-1 8 -10 17 -14 18 -17 5 -25 -8 -5 -10 -10 -4 -10 5 0 9 -15 8 -32 -1 -18 2
-41 8 -51 7 -13 7 -17 0 -13 -6 4 -10 -2 -9 -14 1 -11 5 -20 10 -20 5 0 6 -7
3 -15 -3 -8 -9 -23 -12 -32 -5 -14 -4 -15 4 -4 10 13 13 -27 14 -151 0 -15 4
-26 8 -23 3 2 7 -2 7 -10 0 -8 -4 -12 -9 -9 -4 3 -8 0 -8 -5 0 -6 6 -11 13
-11 8 0 7 -4 -3 -10 -12 -8 -12 -10 -1 -10 11 0 11 -3 0 -17 -10 -11 -10 -14
-2 -9 8 4 13 2 13 -8 0 -8 -4 -17 -9 -21 -6 -3 -4 -17 4 -32 8 -16 11 -31 6
-36 -5 -5 -5 -22 -1 -38 5 -16 6 -29 2 -29 -3 0 -1 -5 6 -12 8 -8 8 -17 0 -31
-5 -11 -6 -22 -2 -26 15 -10 17 -44 3 -35 -8 5 -10 3 -4 -6 8 -14 13 -52 17
-137 1 -29 5 -53 9 -53 9 0 6 -21 -4 -37 -5 -8 -3 -13 5 -13 9 0 9 -3 -2 -10
-8 -5 -10 -10 -4 -10 6 0 10 -17 10 -42 -1 -24 3 -49 9 -57 7 -11 7 -13 -2 -7
-7 4 -13 2 -13 -3 0 -6 6 -11 13 -11 8 0 7 -4 -3 -10 -8 -5 -10 -10 -5 -10 6
0 10 -16 10 -35 -1 -19 3 -35 8 -35 5 0 3 -8 -4 -17 -12 -15 -12 -16 1 -8 13
8 13 7 1 -8 -7 -9 -9 -17 -4 -17 5 0 8 -24 8 -52 -1 -29 5 -73 12 -98 11 -42
11 -44 -4 -25 l-16 20 8 -20 c4 -11 8 -24 9 -30 1 -5 6 -16 10 -24 7 -10 5
-12 -3 -6 -10 5 -11 3 -4 -11 5 -11 9 -39 8 -64 0 -25 4 -48 10 -52 6 -5 6 -8
-1 -8 -11 0 -12 -28 -2 -45 3 -6 5 -22 4 -37 -1 -16 3 -28 9 -28 6 0 7 -3 0
-8 -13 -9 -18 -32 -7 -32 4 0 7 -26 7 -57 -1 -32 2 -66 7 -75 6 -12 5 -18 -4
-19 -7 0 -4 -4 7 -9 11 -5 14 -9 6 -9 -7 -1 -11 -7 -7 -16 3 -8 0 -15 -6 -15
-7 0 -4 -6 7 -13 13 -10 15 -16 6 -21 -9 -6 -9 -11 0 -22 9 -11 9 -14 0 -14
-8 0 -9 -5 -1 -19 7 -14 7 -22 0 -26 -8 -5 -7 -11 0 -20 7 -8 9 -24 5 -36 -5
-14 -4 -19 4 -15 17 11 13 0 -7 -20 -16 -17 -16 -18 1 -11 15 5 16 2 12 -25
-4 -20 -1 -34 7 -39 9 -6 9 -9 1 -9 -11 0 -10 -34 2 -67 2 -7 0 -15 -5 -18 -6
-4 -2 -17 8 -33 9 -14 12 -23 6 -19 -7 4 -15 0 -18 -9 -3 -8 -2 -12 3 -9 5 3
12 1 16 -5 3 -5 1 -10 -5 -10 -8 0 -7 -6 1 -21 9 -17 8 -20 -2 -14 -8 6 -10 4
-4 -5 5 -8 9 -40 10 -72 1 -32 4 -61 8 -64 4 -4 1 -14 -6 -22 -9 -13 -9 -14 1
-8 13 7 13 4 15 -51 1 -18 4 -33 9 -33 4 0 5 -6 2 -14 -3 -8 -1 -17 4 -20 5
-3 8 -17 7 -31 -2 -14 1 -25 6 -25 5 0 9 -5 9 -11 0 -5 -5 -7 -11 -4 -7 5 -8
1 -1 -11 17 -34 34 -89 35 -111 1 -13 5 -23 9 -23 5 0 8 -6 7 -12 -1 -7 -1
-22 0 -33 1 -17 3 -18 12 -5 9 12 10 12 5 -4 -4 -10 1 -30 10 -44 9 -13 11
-21 4 -17 -7 4 -4 -4 5 -18 9 -15 14 -31 10 -37 -3 -5 -1 -10 4 -10 6 0 11 -9
11 -19 0 -11 5 -21 10 -23 6 -2 12 -13 13 -26 0 -12 5 -22 9 -22 4 0 8 -7 8
-15 0 -8 4 -15 8 -15 4 0 9 -10 9 -22 1 -13 8 -27 15 -33 7 -5 14 -17 16 -25
2 -8 8 -17 13 -18 5 -2 7 -8 3 -13 -3 -5 0 -9 6 -9 6 0 8 -4 5 -10 -3 -5 3
-17 14 -26 11 -10 17 -24 13 -32 -3 -10 -1 -13 6 -8 7 4 12 1 12 -8 0 -9 5
-16 11 -16 6 0 8 -7 5 -16 -3 -8 -2 -13 3 -10 7 5 30 -32 27 -45 -2 -12 26
-39 35 -33 5 3 9 0 9 -5 0 -21 3 -26 26 -47 12 -12 20 -25 17 -28 -4 -3 1 -6
11 -6 9 0 15 -4 11 -9 -3 -5 -1 -12 5 -16 6 -4 7 -11 4 -17 -4 -7 -2 -8 4 -4
7 4 12 1 12 -9 0 -9 4 -13 10 -10 5 3 10 -1 10 -10 0 -9 4 -13 10 -10 5 3 10
1 10 -5 0 -16 67 -80 75 -72 4 4 6 2 5 -3 -4 -19 0 -36 8 -32 4 2 17 -6 30
-19 12 -13 19 -24 15 -25 -4 0 2 -4 15 -10 13 -5 20 -13 17 -19 -3 -5 0 -10 8
-10 8 0 23 -11 33 -25 10 -14 25 -25 32 -25 7 0 10 -4 7 -10 -3 -6 4 -10 17
-10 18 0 20 -2 8 -10 -13 -8 -12 -10 3 -10 9 0 17 -4 17 -10 0 -5 6 -10 13
-10 7 0 18 -9 25 -20 7 -11 19 -20 27 -20 8 0 15 -5 15 -11 0 -5 5 -7 10 -4 6
3 13 -1 16 -9 3 -9 12 -16 20 -16 8 0 14 -4 14 -10 0 -5 7 -10 15 -10 8 0 15
-6 15 -14 0 -8 8 -13 18 -12 9 0 16 -4 15 -11 -2 -8 4 -10 14 -6 11 4 14 3 9
-5 -4 -7 -2 -12 3 -12 6 0 11 6 12 13 0 6 4 2 10 -11 5 -13 13 -20 19 -17 6 3
13 0 16 -9 3 -8 14 -13 25 -11 10 2 18 -1 16 -8 -1 -7 8 -12 21 -11 12 0 22
-5 22 -12 0 -10 24 -22 55 -28 6 -1 9 -7 8 -13 -1 -6 8 -10 23 -8 15 1 28 -3
31 -11 3 -8 9 -14 15 -14 5 0 6 5 2 12 -4 7 -3 8 4 4 7 -4 12 -15 13 -24 0
-10 3 -12 5 -5 3 7 12 9 20 6 7 -3 11 -10 7 -16 -4 -6 0 -8 10 -4 9 3 19 1 23
-5 4 -7 9 -6 15 3 7 11 9 10 9 -4 0 -10 4 -16 9 -13 5 3 14 -1 21 -9 7 -8 18
-15 24 -15 6 0 4 5 -4 10 -8 5 -10 10 -5 10 6 0 21 -7 33 -16 12 -8 22 -12 22
-8 0 3 6 2 13 -3 6 -6 20 -9 30 -8 9 2 15 -1 11 -6 -3 -5 4 -9 16 -9 12 0 31
-5 42 -11 16 -9 19 -8 12 3 -6 11 -5 11 8 0 9 -7 30 -14 47 -15 17 -1 31 -6
31 -10 0 -4 6 -7 13 -6 33 4 58 -2 51 -13 -5 -7 -3 -8 7 -3 17 11 50 14 44 5
-3 -4 16 -8 42 -8 26 -1 50 -7 55 -14 6 -10 8 -10 8 1 0 11 3 11 17 0 14 -12
16 -12 8 0 -6 10 -4 12 5 6 18 -11 2730 -13 2737 -2 3 4 11 3 18 -3 9 -7 15
-7 19 -1 4 5 15 8 26 6 11 -2 20 -1 20 3 0 4 25 7 56 6 30 0 58 4 61 10 4 5 1
6 -7 1 -7 -5 -11 -4 -8 1 4 5 29 9 57 8 31 0 48 3 44 9 -4 6 3 8 15 5 12 -4
22 -3 22 1 0 8 11 11 64 14 19 1 34 7 33 12 -1 6 10 10 26 9 15 0 27 4 27 9 0
4 4 6 9 2 5 -3 12 -1 16 4 3 6 12 8 20 4 8 -3 15 0 15 7 0 6 5 8 10 5 6 -3 10
-1 10 5 0 6 5 8 10 5 6 -4 17 -2 24 5 8 6 24 13 36 15 13 2 31 12 41 21 10 9
25 14 34 10 9 -3 13 -2 10 4 -3 6 -1 11 4 11 6 1 16 2 21 3 6 0 14 7 19 14 5
8 10 13 12 12 9 -3 65 23 83 38 11 10 16 11 11 3 -5 -9 1 -7 19 4 14 10 26 21
26 25 0 4 8 7 18 6 9 0 16 4 15 10 -1 6 5 11 13 12 7 1 21 3 29 4 8 1 12 5 9
9 -6 11 37 39 59 39 13 0 17 5 13 15 -3 8 -2 14 2 14 20 -3 33 2 27 11 -3 6 1
7 9 4 9 -3 16 -1 16 5 0 6 6 11 14 11 7 0 23 14 36 30 13 17 27 30 33 30 5 0
20 10 32 23 13 12 41 37 63 56 23 19 39 38 37 42 -3 4 3 6 12 5 10 0 18 5 18
12 0 8 11 20 25 27 14 8 22 14 17 15 -4 0 14 21 40 48 26 26 48 50 48 54 0 13
43 47 51 40 4 -4 4 -1 0 6 -4 7 4 24 22 42 16 16 27 31 24 34 -3 3 3 8 12 12
9 3 14 10 11 15 -3 4 4 13 15 19 11 6 18 15 15 21 -4 5 -1 9 5 9 6 0 9 4 6 9
-3 5 1 12 10 15 8 3 12 10 9 16 -3 5 -1 10 4 10 6 0 11 5 11 11 0 7 10 20 22
30 11 11 17 19 12 19 -5 0 0 7 10 15 20 15 20 15 0 16 -17 0 -17 1 4 11 20 10
23 15 21 34 0 3 8 12 18 20 10 8 13 13 6 14 -8 0 -4 10 10 26 12 14 23 30 23
35 1 5 2 14 3 20 0 5 6 7 12 3 8 -4 9 0 4 15 -4 12 -2 21 4 21 6 0 11 9 11 20
0 11 6 23 14 26 8 3 12 13 9 24 -3 10 0 21 6 24 6 4 11 16 11 27 0 10 5 19 10
19 6 0 9 3 9 8 -3 20 2 43 9 38 5 -3 8 10 7 29 0 18 3 33 9 32 5 -1 10 13 12
32 1 19 7 37 12 40 5 3 8 16 7 28 -1 13 1 23 5 23 6 0 8 11 12 68 2 17 7 32
12 32 5 0 6 3 3 7 -4 3 -1 13 6 21 10 13 9 14 -3 7 -12 -7 -13 -6 -4 6 6 8 10
22 9 31 -2 10 0 18 5 18 5 0 7 24 6 54 -1 30 1 53 6 50 4 -3 5 9 1 27 -4 20
-2 30 4 26 8 -5 10 25 3 43 -1 3 -1 10 0 15 1 6 3 33 5 61 1 28 5 56 9 63 4 6
2 11 -5 11 -8 0 -9 4 0 13 8 10 7 17 -2 27 -10 10 -9 11 2 5 11 -6 13 -3 9 12
-3 11 -1 28 4 37 7 12 5 16 -9 16 -15 0 -15 2 -3 10 9 6 14 27 15 62 0 29 5
59 10 67 5 10 4 16 -4 19 -9 3 -8 10 3 27 12 17 13 26 4 31 -7 5 -8 3 -3 -6 5
-9 4 -11 -4 -6 -9 6 -9 11 -1 21 6 7 12 47 13 89 1 42 6 76 12 76 7 0 7 3 0 8
-18 13 -17 35 2 28 16 -6 16 -6 1 11 -12 13 -14 23 -7 36 8 13 7 22 -2 33 -10
12 -9 13 7 8 15 -6 17 -4 7 6 -7 7 -9 20 -5 29 4 9 7 39 7 66 0 28 5 53 10 57
6 5 5 8 -4 8 -11 0 -11 3 -1 15 9 11 9 15 1 15 -8 0 -9 5 -1 19 14 27 13 44
-2 35 -10 -6 -10 -5 -1 8 7 8 10 18 6 21 -3 4 -2 7 3 7 5 0 8 23 7 50 -2 38 1
49 10 43 9 -5 9 -4 0 8 -10 12 -10 18 0 29 10 10 8 12 -7 6 -19 -6 -19 -6 -3
12 13 15 14 21 4 32 -9 10 -9 11 1 6 15 -9 16 10 2 19 -7 4 -7 11 -2 18 5 7
10 32 11 56 0 24 3 46 6 49 2 3 0 14 -6 25 -7 12 -7 17 -1 13 12 -7 24 22 15
37 -10 17 -11 47 -1 41 4 -3 8 -1 8 5 0 5 -5 13 -10 16 -7 4 -7 12 -2 18 4 7
9 41 11 77 1 36 8 71 14 79 9 12 9 13 0 7 -8 -4 -13 -1 -13 8 0 9 3 16 8 16 4
0 7 38 7 85 0 47 2 85 5 85 3 0 5 21 6 47 2 99 11 210 17 220 4 6 1 14 -5 16
-9 4 -9 6 -1 6 6 1 9 10 5 23 -4 16 -2 19 9 13 12 -7 12 -6 1 7 -9 12 -10 18
-2 23 8 5 8 11 1 19 -7 9 -7 16 1 24 7 7 8 12 2 12 -11 0 -12 29 -2 46 4 5 5
19 4 30 -2 10 2 25 8 33 8 11 8 13 -1 7 -7 -4 -13 -2 -13 3 0 6 4 11 10 11 5
0 6 7 3 17 -5 12 -3 14 8 8 12 -8 12 -6 0 8 -8 10 -11 20 -8 24 4 3 1 13 -6
21 -8 10 -8 13 -1 9 16 -9 25 18 11 32 -8 8 -8 11 1 11 9 0 10 5 4 18 -12 22
5 85 20 76 7 -4 8 -3 4 5 -4 6 -11 9 -16 6 -4 -3 -11 2 -14 11 -4 11 -2 15 7
11 9 -3 12 8 11 44 0 30 3 49 10 49 6 0 5 4 -3 9 -10 7 -11 13 -1 31 9 17 9
21 0 15 -9 -6 -9 -3 -2 11 15 28 15 36 0 45 -8 6 -9 9 -1 9 7 0 10 13 8 35 -2
24 0 33 8 28 7 -4 6 1 -2 10 -12 15 -11 17 5 17 17 0 17 1 -2 16 -10 8 -13 13
-6 9 8 -4 11 1 8 17 -1 13 0 35 5 50 4 16 3 28 -2 30 -6 2 -7 11 -4 21 4 9 12
14 18 10 6 -4 7 -1 1 8 -14 23 -15 51 -2 44 7 -4 4 1 -7 11 -20 16 -20 16 3
11 23 -5 23 -5 6 14 -9 10 -13 19 -8 19 5 0 9 37 9 83 0 45 4 88 9 95 7 9 5
16 -5 23 -11 7 -11 9 0 9 7 0 11 6 7 15 -3 8 -2 15 2 15 4 0 7 21 6 48 0 26 3
54 7 63 5 9 3 21 -4 28 -9 10 -8 15 7 27 15 10 16 14 5 14 -8 0 -15 9 -15 20
0 13 5 19 13 15 10 -3 11 0 3 14 -7 14 -6 21 3 24 9 4 9 6 0 6 -9 1 -10 8 -5
24 4 12 7 43 6 69 -1 34 1 46 10 41 6 -4 5 1 -3 10 -10 13 -10 17 -1 17 10 0
10 3 0 15 -10 12 -10 15 0 15 9 0 9 4 -1 17 -8 9 -9 14 -3 10 11 -7 17 48 15
156 0 35 3 46 12 40 9 -5 9 -3 0 8 -10 12 -10 18 -1 27 9 9 9 12 -2 12 -9 0
-8 5 6 16 10 8 14 13 7 10 -6 -4 -14 -2 -18 4 -3 5 -1 10 4 10 6 0 11 21 11
48 2 124 2 132 14 125 6 -4 5 1 -3 10 -11 14 -11 17 0 17 11 0 11 2 -1 10 -10
6 -11 10 -3 10 15 0 13 21 -2 32 -7 5 -6 8 0 8 6 0 12 28 13 62 1 34 4 64 7
66 2 3 0 14 -6 25 -7 13 -7 17 -1 13 6 -3 13 -2 17 4 3 5 1 10 -4 10 -6 0 -11
5 -11 11 0 5 6 7 13 3 9 -6 9 -4 -1 8 -10 12 -10 18 -1 23 8 6 7 10 -2 16 -8
5 -9 9 -3 9 6 0 10 23 10 60 -1 34 3 60 9 60 6 0 3 5 -5 10 -8 5 -10 10 -4 10
5 0 9 14 8 30 -1 17 2 33 7 36 6 3 5 11 -2 20 -9 11 -9 14 1 14 10 0 10 3 1
14 -7 8 -8 16 -4 19 5 3 8 37 8 76 0 39 4 71 9 71 5 0 3 7 -4 15 -7 8 -8 15
-3 15 6 0 8 12 6 28 -2 15 -5 55 -6 89 -1 35 -6 63 -10 63 -4 0 -3 9 3 20 9
16 8 20 -7 20 -15 0 -15 2 3 16 10 8 13 12 5 8 -11 -5 -13 -2 -9 14 4 12 2 22
-3 22 -4 0 -6 7 -3 15 4 8 1 22 -5 29 -9 11 -9 16 0 21 7 5 8 10 1 14 -6 4
-12 28 -13 54 -2 26 -5 47 -9 47 -5 0 -11 29 -13 72 -1 9 -6 14 -11 11 -5 -4
-7 1 -3 10 3 9 2 19 -4 22 -5 4 -7 11 -4 16 4 5 2 9 -4 9 -5 0 -8 9 -6 20 2
11 -1 20 -7 20 -6 0 -6 6 2 15 11 13 10 14 -5 9 -15 -6 -17 -3 -13 14 4 12 2
22 -4 22 -5 0 -6 5 -3 10 3 6 1 10 -4 10 -6 0 -11 9 -11 20 0 22 -19 60 -35
72 -6 5 -5 8 3 8 10 0 9 4 -3 16 -9 9 -14 23 -10 32 4 12 3 13 -10 2 -13 -11
-14 -10 -10 2 3 8 -1 20 -9 27 -8 7 -12 19 -9 27 3 8 0 14 -6 14 -6 0 -11 7
-11 15 0 8 -4 15 -10 15 -5 0 -10 12 -10 26 0 17 -4 23 -12 18 -7 -5 -9 -2 -5
9 4 12 2 14 -10 10 -10 -4 -14 -2 -10 4 4 6 0 16 -8 23 -8 7 -15 19 -15 26 0
8 -4 14 -10 14 -5 0 -10 6 -10 14 0 7 -18 32 -39 54 -24 25 -35 43 -28 46 7 2
3 5 -7 5 -11 1 -16 4 -13 7 3 4 -7 19 -23 34 -17 16 -30 32 -30 37 0 4 -14 17
-30 28 -16 11 -30 25 -30 30 0 13 -36 45 -51 45 -5 0 -8 4 -5 9 6 9 -22 26
-37 22 -5 -1 -6 3 -3 8 8 12 -18 33 -29 23 -5 -4 -5 1 -1 12 5 14 3 17 -10 12
-11 -4 -18 1 -21 15 -4 16 -8 17 -14 7 -7 -10 -9 -8 -9 6 0 12 -5 16 -16 12
-8 -3 -13 -2 -10 3 3 4 -6 13 -20 20 -14 6 -22 16 -19 21 3 6 -3 10 -15 10
-12 0 -18 5 -15 10 3 6 -3 10 -14 10 -11 0 -26 8 -33 18 -7 9 -20 17 -28 17
-8 0 -14 6 -12 13 1 8 -2 11 -9 6 -7 -4 -18 1 -26 11 -9 14 -13 15 -13 4 -1
-10 -6 -7 -19 8 -10 12 -21 19 -25 16 -3 -4 -6 0 -6 7 0 7 -3 11 -6 7 -3 -3
-24 5 -46 19 -22 14 -37 21 -34 15 4 -7 1 -8 -8 -5 -9 3 -16 10 -16 14 0 4
-16 11 -35 14 -19 4 -35 11 -35 17 0 6 -5 7 -10 4 -6 -3 -17 0 -25 9 -8 8 -24
13 -35 11 -11 -2 -20 0 -20 6 0 5 -12 9 -26 9 -17 0 -23 4 -18 13 5 7 0 6 -11
-3 -10 -8 -16 -10 -12 -4 4 7 -4 14 -21 16 -15 3 -36 9 -46 13 -15 7 -17 5
-11 -6 7 -11 5 -11 -10 1 -10 8 -26 14 -37 12 -10 -2 -18 2 -18 7 0 6 -3 10
-7 10 -26 -4 -83 2 -79 9 2 4 -4 8 -14 8 -10 0 -16 -5 -13 -10 4 -5 1 -6 -6
-2 -25 16 -151 27 -151 14 0 -5 -7 -2 -16 7 -10 9 -20 13 -23 8 -3 -5 -17 -7
-31 -6 -52 6 -3880 8 -3880 2 0 -7 -57 -2 -71 6 -5 4 -9 2 -9 -4z"/>
</g>
</svg>
